<svg xmlns="http://www.w3.org/2000/svg" width="800" height="554" viewBox="0 0 800 554">
  <rect x="53" y="31" width="698" height="499" rx="24" fill="#F8F2E7"/>
  <g transform="translate(0.000000,554.000000) scale(0.100000,-0.100000)" fill="#7C5755" stroke="none">
    <path d="M3475 3411 c-53 -25 -103 -76 -129 -131 -16 -34 -21 -65 -21 -130 0
-76 3 -91 30 -139 101 -183 346 -205 430 -38 48 97 26 132 -41 66 -40 -39 -49
-43 -104 -47 l-61 -4 -44 45 c-52 55 -75 120 -75 215 0 60 2 66 35 99 30 30
40 35 68 29 33 -6 51 -24 100 -96 46 -68 113 -78 137 -20 46 111 -183 217
-325 151z M4029 3416 c-85 -30 -139 -94 -165 -195 -36 -141 17 -264 141 -329
42 -22 63 -27 130 -27 90 0 136 19 192 77 81 84 101 230 46 336 -32 63 -100
122 -163 141 -49 15 -136 13 -181 -3z m114 -75 c59 -53 117 -207 117 -306 0
-77 -30 -114 -92 -115 -31 0 -42 7 -77 46 -87 99 -132 323 -77 383 34 37 84
34 129 -8z M4467 3416 c-3 -8 1 -22 8 -33 21 -27 21 -450 0 -477 -8 -11 -15
-23 -15 -28 0 -12 308 -10 352 2 58 16 130 71 162 123 38 61 48 173 22 241
-20 53 -89 119 -151 146 -86 37 -367 56 -378 26z m274 -61 c69 -36 121 -154
123 -276 0 -103 -51 -159 -145 -159 -80 0 -83 10 -87 232 -3 137 0 193 8 204
16 18 63 18 101 -1z M5074 3415 c-3 -8 1 -24 10 -37 23 -32 24 -434 1 -464
-32 -43 -26 -44 195 -44 l209 0 7 37 c19 101 4 137 -38 87 -60 -72 -63 -74
-133 -74 -61 0 -66 2 -75 26 -6 14 -10 59 -10 100 l0 74 54 0 c47 0 57 -3 74
-27 13 -17 25 -24 36 -20 13 5 16 21 16 81 0 88 -12 102 -49 57 -23 -28 -32
-31 -79 -31 l-53 0 3 93 3 92 65 3 64 3 42 -45 c48 -53 74 -60 74 -18 -1 44
-17 104 -32 113 -7 5 -95 9 -196 9 -151 0 -184 -3 -188 -15z M5565 3420 c-4
-6 0 -22 9 -35 23 -35 23 -450 1 -479 -8 -11 -15 -24 -15 -29 0 -5 78 -7 178
-5 159 3 181 5 218 25 96 51 145 124 152 226 6 78 -13 138 -60 192 -51 58
-124 91 -228 104 -109 14 -247 14 -255 1z m282 -70 c67 -40 113 -153 113 -275
0 -59 -4 -77 -22 -100 -43 -55 -147 -74 -184 -34 -17 19 -19 41 -22 217 -3
153 0 197 10 203 23 15 72 10 105 -11z M1934 3397 c-2 -7 -3 -107 -2 -222 l3
-210 61 -6 c72 -7 120 -32 151 -79 29 -41 30 -103 4 -146 -24 -40 -96 -75
-161 -78 -27 -1 -53 -5 -56 -9 -7 -7 -13 -366 -6 -384 3 -10 49 -13 182 -13
l178 0 4 57 c4 50 9 60 45 93 65 61 158 72 244 29 47 -23 70 -60 78 -123 l6
-51 210 0 210 0 0 575 0 575 -395 0 -395 0 -3 -25 c-10 -85 -46 -123 -119
-124 -35 -1 -48 5 -72 29 -27 27 -33 45 -40 118 -2 13 -121 8 -127 -6z m86
-53 c0 -32 43 -92 80 -113 97 -54 200 -5 234 112 5 16 31 17 356 17 l350 0 0
-535 0 -535 -164 0 -163 0 -7 38 c-8 54 -43 101 -99 136 -38 23 -62 30 -120
33 -65 4 -77 2 -127 -24 -61 -32 -95 -75 -112 -140 l-11 -44 -131 3 -131 3 -3
156 -2 156 49 6 c86 10 148 56 184 136 49 110 -29 223 -177 256 l-51 11 -3
172 -2 172 25 0 c16 0 25 -6 25 -16z M2535 3241 c-53 -22 -105 -103 -105 -165
0 -42 41 -106 84 -131 89 -52 188 -25 234 65 28 56 28 104 -1 155 -39 69 -140
105 -212 76z m149 -71 c36 -35 46 -102 22 -147 -19 -37 -86 -67 -131 -59 -49
10 -87 56 -92 113 -5 42 -1 53 22 81 48 57 127 63 179 12z M2744 2816 c-66
-29 -98 -114 -67 -176 68 -132 253 -88 253 61 0 45 -29 87 -75 109 -48 23 -68
24 -111 6z m111 -61 c54 -53 21 -145 -51 -145 -46 0 -63 9 -79 41 -26 50 -16
91 30 117 33 19 74 14 100 -13z M3454 2721 c-140 -63 -178 -277 -72 -405 63
-77 197 -110 277 -68 49 24 92 82 98 131 7 52 -6 53 -58 6 -21 -19 -50 -37
-64 -41 -91 -23 -173 61 -191 193 -12 95 28 158 98 151 27 -2 39 -12 68 -56
35 -54 47 -64 87 -76 15 -5 28 -1 42 13 44 44 13 107 -73 147 -64 30 -153 32
-212 5z M3815 2730 c-3 -5 1 -23 10 -39 22 -44 22 -386 -1 -419 -8 -12 -12
-27 -9 -32 8 -14 172 -13 180 1 4 5 0 18 -9 28 -12 13 -16 39 -16 104 l0 87
95 0 95 0 0 -75 c0 -49 -6 -87 -15 -106 -9 -16 -13 -34 -10 -39 3 -6 44 -10
91 -10 73 0 84 2 84 18 0 9 -7 26 -15 36 -23 30 -22 372 1 404 29 41 13 52
-75 52 -44 0 -82 -4 -85 -9 -3 -5 1 -25 10 -46 10 -24 14 -60 12 -103 l-3 -67
-92 -3 -93 -3 0 88 c1 61 5 94 15 107 12 16 12 22 2 28 -17 11 -165 10 -172
-2z M4380 2721 c0 -11 5 -23 10 -26 15 -9 13 -408 -1 -422 -7 -7 -9 -19 -6
-27 6 -14 32 -16 180 -16 132 0 177 3 185 13 6 7 14 39 18 70 8 72 -4 74 -62
12 -39 -43 -43 -45 -97 -45 -70 0 -79 13 -75 113 l3 72 38 3 c32 3 43 -2 67
-28 16 -17 34 -29 40 -25 5 3 10 37 10 75 0 38 -5 72 -10 75 -6 4 -23 -7 -39
-24 -23 -25 -37 -31 -70 -31 l-41 0 0 84 c0 94 2 96 74 96 36 0 48 -6 81 -40
38 -39 59 -48 69 -32 7 12 -15 106 -28 114 -6 4 -86 8 -178 8 -160 0 -168 -1
-168 -19z M4825 2730 c-3 -5 1 -23 10 -39 23 -45 22 -386 -1 -420 -10 -14 -13
-26 -7 -32 5 -5 86 -8 189 -7 l179 3 12 60 c6 32 9 63 7 67 -11 17 -34 7 -55
-24 -34 -51 -48 -58 -111 -58 -54 0 -59 2 -69 27 -5 14 -9 56 -7 92 l3 66 42
3 c36 3 46 -1 69 -27 15 -17 31 -28 35 -25 14 8 11 142 -3 150 -6 4 -14 2 -16
-5 -11 -34 -43 -52 -85 -49 l-42 3 -3 73 c-4 91 4 102 70 102 45 0 53 -4 85
-40 38 -42 73 -53 73 -22 -1 35 -19 95 -32 103 -18 12 -335 11 -343 -1z M5355
2726 c-104 -45 -126 -193 -37 -250 20 -13 68 -34 106 -46 81 -27 116 -56 116
-99 0 -35 -31 -61 -73 -61 -29 0 -63 29 -116 99 -19 26 -29 31 -55 29 -23 -2
-33 -10 -40 -31 -13 -37 15 -74 84 -109 108 -56 258 -30 301 52 40 74 17 146
-61 185 -27 14 -54 25 -60 25 -6 0 -33 9 -60 21 -82 35 -104 122 -39 150 39
15 74 0 97 -42 35 -64 52 -79 88 -79 28 0 35 4 41 28 14 53 -6 83 -82 118 -58
27 -160 32 -210 10z M5717 2727 c-3 -7 1 -21 9 -32 21 -28 20 -402 -1 -429
-12 -16 -12 -22 -2 -28 21 -14 353 -10 365 5 5 6 13 35 17 63 9 72 -7 78 -59
20 -41 -44 -45 -46 -99 -46 -70 0 -77 10 -77 114 l0 76 41 0 c33 0 46 -6 70
-32 25 -28 31 -30 39 -18 13 20 13 137 0 145 -6 4 -23 -7 -39 -24 -23 -25 -37
-31 -70 -31 l-42 0 3 88 3 87 55 3 c52 3 56 2 92 -37 20 -23 45 -41 54 -41 15
0 16 8 10 57 -4 32 -12 61 -19 65 -7 4 -87 8 -178 8 -127 0 -168 -3 -172 -13z"/>
  </g>
</svg>
